<svg xmlns="http://www.w3.org/2000/svg" width="157" height="48"><path d="M99.547 7.4c-2.152 0-3.8 1.057-3.8 2.936 0 1.7 1.155 3 3.973 3a9.258 9.258 0 003.933-.9V7.165c0-2.584-1.781-3.6-3.992-3.6a5.29 5.29 0 00-3.5 1.253 1.454 1.454 0 00.8 1.057 4.443 4.443 0 012.622-.842c1.624 0 2.524.744 2.524 2.134v.7a6.815 6.815 0 00-2.564-.47zm2.564 4.15a7.24 7.24 0 01-2.368.372c-1.585 0-2.368-.666-2.368-1.664 0-1.058.9-1.469 2.172-1.469a6.007 6.007 0 012.564.509v2.252zm36.689 9.62v7.6a6.447 6.447 0 01-2.29.411c-2.29 0-2.7-1.038-2.7-2.8V21.17a3.541 3.541 0 00-.783-.078 3.835 3.835 0 00-.8.078v5.854c0 2.212 1.292 3.622 3.914 3.622a9.858 9.858 0 004.246-.9V21.17a3.538 3.538 0 00-.783-.078 3.821 3.821 0 00-.8.078zm-49.037-7.838a8.591 8.591 0 003.836-.92V.2a3.847 3.847 0 00-.8-.079 3.372 3.372 0 00-.766.079v3.813a5.074 5.074 0 00-7.123 4.5 4.549 4.549 0 004.853 4.816zm.059-8.282a3.831 3.831 0 012.212.529v5.912a5.44 5.44 0 01-2.27.392 3.116 3.116 0 01-3.248-3.406 3.2 3.2 0 013.307-3.426zm-13.933 8.008V5.677a5.1 5.1 0 012.485-.646c1.781 0 2.7.822 2.7 2.838v5.188a3.669 3.669 0 00.783.078 3.74 3.74 0 00.8-.078V7.322c0-2-1.253-3.759-4.13-3.759A6.933 6.933 0 0074.3 4.972v8.086a3.666 3.666 0 00.783.078 3.734 3.734 0 00.8-.078zM57.006 40.266c-2.035-.509-2.544-1.116-2.544-2.134s.94-1.86 2.466-1.86a5.068 5.068 0 013.17 1.038 1.788 1.788 0 00.841-1.273 6.247 6.247 0 00-4.011-1.237c-2.446 0-4.031 1.469-4.031 3.426 0 2.428 1.82 3.231 3.777 3.7 2.427.568 2.9 1.371 2.9 2.349 0 1.312-.92 2.252-2.877 2.252A4.341 4.341 0 0153.5 45.2a2.023 2.023 0 00-.978 1.194A5.5 5.5 0 0056.693 48c2.72 0 4.462-1.39 4.462-3.759 0-2.389-1.625-3.348-4.149-3.974zM75.4 22.5v5.031c0 2.213 1.35 3.093 3.209 3.093a3.981 3.981 0 002.583-.979 1.78 1.78 0 00-.7-1.116 3 3 0 01-1.761.7c-1 0-1.781-.352-1.781-2.016V22.5h3.659a2.437 2.437 0 00.078-.646 2.3 2.3 0 00-.078-.627h-3.662v-2.484a3.392 3.392 0 00-.763-.078 3.439 3.439 0 00-.783.078v2.487h-1.586a2.284 2.284 0 00-.078.627 2.423 2.423 0 00.078.646H75.4zm-20.273-9.442V7.733h5.44a3.367 3.367 0 000-1.448h-5.44V1.977h6.145a3.029 3.029 0 00.078-.724 3.362 3.362 0 00-.078-.763h-7.73v12.568a3.265 3.265 0 001.585 0zm67.824.254a4.741 4.741 0 004.814-4.875 4.662 4.662 0 00-4.7-4.895 4.757 4.757 0 00-4.814 4.895 4.645 4.645 0 004.7 4.875zm.058-8.3a3.119 3.119 0 013.151 3.426 3.16 3.16 0 11-6.3 0 3.119 3.119 0 013.15-3.426zm33.291 23.52a3 3 0 01-1.761.7c-1 0-1.781-.352-1.781-2.016V22.5h3.66a2.436 2.436 0 00.078-.646 2.3 2.3 0 00-.078-.627h-3.66v-2.484a3.387 3.387 0 00-.764-.078 3.442 3.442 0 00-.782.078v2.487h-1.585a2.3 2.3 0 00-.078.627 2.431 2.431 0 00.078.646h1.585v5.031c0 2.213 1.35 3.093 3.209 3.093a3.981 3.981 0 002.579-.979 1.78 1.78 0 00-.7-1.116zm-35.81-2.78a4.645 4.645 0 004.7 4.875 4.74 4.74 0 004.81-4.875 4.662 4.662 0 00-4.7-4.894 4.756 4.756 0 00-4.814 4.894zm7.905 0a3.16 3.16 0 11-6.3 0 3.161 3.161 0 116.3 0zM114.3 3.817v9.241a3.832 3.832 0 00.8.078 3.528 3.528 0 00.782-.078V3.817a3.539 3.539 0 00-.782-.078 3.838 3.838 0 00-.8.078zm-7.456 1.371v5.031c0 2.213 1.35 3.093 3.209 3.093a3.981 3.981 0 002.583-.979 1.779 1.779 0 00-.7-1.116 3 3 0 01-1.761.7c-1 0-1.781-.352-1.781-2.016V5.188h3.66a2.441 2.441 0 00.078-.646 2.3 2.3 0 00-.078-.626h-3.66V1.429a3.385 3.385 0 00-.763-.078 3.445 3.445 0 00-.782.078v2.486h-1.585a2.3 2.3 0 00-.078.626 2.441 2.441 0 00.078.646h1.585zm36.379 16.942v8.242a3.711 3.711 0 00.8.079 3.59 3.59 0 00.8-.079v-7.537a3.893 3.893 0 012.016-.47 6.714 6.714 0 011.683.2 2.1 2.1 0 00.391-1.371 5.82 5.82 0 00-1.977-.313 6.1 6.1 0 00-3.719 1.253zM115.1 2.232a1.1 1.1 0 001.1-1.116 1.115 1.115 0 10-2.231 0 1.12 1.12 0 001.131 1.116zM98.98 38.191a4.591 4.591 0 00-4.462 4.914c0 2.956 1.9 4.855 4.6 4.855a5.442 5.442 0 003.621-1.331 1.813 1.813 0 00-.861-1.077 3.94 3.94 0 01-2.74.96 2.986 2.986 0 01-2.975-2.976h6.849a9.392 9.392 0 00.078-1.253 3.964 3.964 0 00-4.11-4.092zm-2.8 4.033a2.807 2.807 0 012.8-2.624 2.392 2.392 0 012.465 2.624h-5.263zm23.032-12.792a1.87 1.87 0 00-.9-1.1 3.321 3.321 0 01-2.289.862c-2.192 0-3.17-1.645-3.17-3.426s.978-3.465 3.17-3.465a3.339 3.339 0 012.152.8 1.94 1.94 0 00.9-1.155 4.571 4.571 0 00-3.053-1.077 4.68 4.68 0 00-4.775 4.895 4.527 4.527 0 004.775 4.875 4.657 4.657 0 003.19-1.214zM89 29.648a1.779 1.779 0 00-.705-1.116 3 3 0 01-1.76.7c-1 0-1.781-.352-1.781-2.016V22.5h3.66a2.436 2.436 0 00.078-.646 2.292 2.292 0 00-.078-.627h-3.66v-2.484a3.394 3.394 0 00-.763-.078 3.448 3.448 0 00-.783.078v2.487h-1.585a2.3 2.3 0 00-.077.627 2.435 2.435 0 00.077.646h1.585v5.031c0 2.213 1.351 3.093 3.21 3.093A3.982 3.982 0 0089 29.648zm1.623 8.837v7.6a6.449 6.449 0 01-2.29.412c-2.289 0-2.7-1.038-2.7-2.8v-5.212a3.509 3.509 0 00-.782-.078 3.815 3.815 0 00-.8.078v5.854c0 2.212 1.292 3.621 3.914 3.621a9.864 9.864 0 004.246-.9v-8.575a3.506 3.506 0 00-.782-.078 3.805 3.805 0 00-.8.078zM97.2 28.239a3.944 3.944 0 01-2.74.959 2.986 2.986 0 01-2.975-2.976h6.85a9.38 9.38 0 00.078-1.253 3.964 3.964 0 00-4.11-4.092 4.591 4.591 0 00-4.461 4.914c0 2.956 1.9 4.856 4.6 4.856a5.436 5.436 0 003.62-1.332 1.807 1.807 0 00-.861-1.076zm-2.9-5.952a2.392 2.392 0 012.466 2.624h-5.261a2.807 2.807 0 012.795-2.624zm11.115 12.537v12.863a3.665 3.665 0 00.783.078 3.717 3.717 0 00.8-.078V34.824a3.741 3.741 0 00-.8-.078 3.69 3.69 0 00-.78.078zm4.6 0v12.863a3.664 3.664 0 00.782.078 3.717 3.717 0 00.8-.078V34.824a3.742 3.742 0 00-.8-.078 3.688 3.688 0 00-.781.078zm-5.146-13.947a6.933 6.933 0 00-4.227 1.409v8.086a3.661 3.661 0 00.782.078 3.72 3.72 0 00.8-.078v-7.38a5.1 5.1 0 012.485-.646c1.78 0 2.7.822 2.7 2.838v5.188a3.657 3.657 0 00.782.078 3.727 3.727 0 00.8-.078v-5.736c0-2-1.252-3.759-4.129-3.759zm19.921 18.568v8.241a3.706 3.706 0 00.8.078 3.574 3.574 0 00.8-.078v-7.537a3.892 3.892 0 012.016-.47 6.719 6.719 0 011.683.2 2.1 2.1 0 00.391-1.371 5.822 5.822 0 00-1.977-.313 6.1 6.1 0 00-3.719 1.253zM60.117 23.716a2.834 2.834 0 001.565-2.683c0-2.192-1.467-3.347-4.559-3.347a17.978 17.978 0 00-3.6.333v12.334a20.61 20.61 0 003.679.254c3.288 0 5.068-1.41 5.068-3.876a2.9 2.9 0 00-2.152-3.015zm-5.01-4.561a18.879 18.879 0 012.114-.1c1.918 0 2.936.705 2.936 1.977 0 1.351-.744 2.154-2.721 2.154h-2.328v-4.032zm2 10.043a12.36 12.36 0 01-2-.137v-4.445h2.5c1.938 0 3.092.685 3.092 2.193 0 1.7-1.057 2.388-3.6 2.388zm20.214 8.994a5.36 5.36 0 00-2.74.725v-4.093a3.537 3.537 0 00-.783-.078 3.842 3.842 0 00-.8.078v12.862a3.849 3.849 0 00.8.078 3.543 3.543 0 00.783-.078v-7.3a5.114 5.114 0 012.447-.685c2.153 0 2.7 1.331 2.7 2.839v5.149a3.67 3.67 0 00.783.078 3.726 3.726 0 00.8-.078V41.97a3.65 3.65 0 00-3.992-3.778zM136.805 7.87v5.188a3.669 3.669 0 00.783.078 3.73 3.73 0 00.8-.078V7.322c0-2-1.252-3.759-4.129-3.759a6.933 6.933 0 00-4.227 1.409v8.086a3.668 3.668 0 00.782.078 3.733 3.733 0 00.8-.078V5.677a5.1 5.1 0 012.485-.646c1.781 0 2.7.822 2.7 2.838zM118.45 38.191a4.591 4.591 0 00-4.462 4.914c0 2.956 1.9 4.855 4.6 4.855a5.442 5.442 0 003.621-1.331 1.813 1.813 0 00-.861-1.077 3.94 3.94 0 01-2.74.96 2.986 2.986 0 01-2.975-2.976h6.849a9.392 9.392 0 00.078-1.253 3.964 3.964 0 00-4.11-4.092zm-2.8 4.033a2.806 2.806 0 012.8-2.624 2.392 2.392 0 012.465 2.624zm-47.1-21.347a4.591 4.591 0 00-4.462 4.914c0 2.956 1.9 4.856 4.6 4.856a5.439 5.439 0 003.62-1.332 1.808 1.808 0 00-.861-1.076 3.941 3.941 0 01-2.74.959 2.986 2.986 0 01-2.975-2.976h6.849a9.432 9.432 0 00.078-1.253 3.964 3.964 0 00-4.109-4.092zm-2.8 4.033a2.807 2.807 0 012.8-2.624 2.392 2.392 0 012.465 2.624zm1.468-11.6a4.741 4.741 0 004.814-4.875 4.662 4.662 0 00-4.7-4.895 4.757 4.757 0 00-4.814 4.895 4.645 4.645 0 004.7 4.875zm.059-8.3a3.119 3.119 0 013.153 3.428 3.16 3.16 0 11-6.3 0 3.12 3.12 0 013.15-3.426zM70 45.65a3.322 3.322 0 01-2.29.862c-2.192 0-3.169-1.645-3.169-3.427s.978-3.465 3.169-3.465a3.341 3.341 0 012.153.8 1.937 1.937 0 00.9-1.155 4.569 4.569 0 00-3.053-1.077 4.68 4.68 0 00-4.775 4.894 4.527 4.527 0 004.775 4.875 4.657 4.657 0 003.19-1.214 1.867 1.867 0 00-.9-1.1z" fill="#1d1d1b"/><ellipse cx="20.68" cy="20.69" rx="20.68" ry="20.69" transform="translate(.5 3.311)" fill="#0067b0"/><path d="M21.389 26.07h-.005a29.4 29.4 0 01-11.144-4.144 14.4 14.4 0 01-8.013 10.352 20.722 20.722 0 0013.739 11.734 32.855 32.855 0 015.423-17.941z" fill="#f3980a"/><path d="M2.559 14.991a29.747 29.747 0 007.68 6.935A13.974 13.974 0 006.276 9.665a20.73 20.73 0 00-3.717 5.326z" fill="#dea3c9"/><path d="M41.745 21.819a20.565 20.565 0 00-3.03-8.783A32.753 32.753 0 0021.389 26.07a29.759 29.759 0 004.518.344 29.433 29.433 0 0015.838-4.594z" fill="#c42684"/><path d="M41.745 21.819a29.433 29.433 0 01-15.837 4.595 29.758 29.758 0 01-4.518-.344 32.853 32.853 0 00-5.423 17.954A20.693 20.693 0 0041.86 24a20.945 20.945 0 00-.115-2.181z" fill="#72c7f1"/><path d="M2.559 14.991a20.721 20.721 0 00-.332 17.287 14.4 14.4 0 008.013-10.352 29.745 29.745 0 01-7.68-6.935z" fill="#5bb684"/><path d="M19.331 18.8a5.059 5.059 0 10-5.057-5.059 5.058 5.058 0 005.057 5.059" fill="#f3e617"/><path data-name="contours blancs" d="M19.331 19.3a5.559 5.559 0 10-5.557-5.56 5.565 5.565 0 005.557 5.56zm0-10.118a4.559 4.559 0 11-4.556 4.559 4.563 4.563 0 014.556-4.557zM21.18 2.81A21.19 21.19 0 1042.36 24 21.209 21.209 0 0021.18 2.81zM41.2 21.561a28.973 28.973 0 01-15.29 4.352 29.407 29.407 0 01-3.65-.247 32.729 32.729 0 0116.212-12.02 20.024 20.024 0 012.728 7.915zM21.18 3.81a20.171 20.171 0 0116.761 8.963A33.746 33.746 0 0021.149 25.52a28.74 28.74 0 01-10.377-3.86 14.384 14.384 0 00-3.79-11.988A20.106 20.106 0 0121.18 3.81zM6.3 10.409a13.36 13.36 0 013.535 10.632 29.161 29.161 0 01-6.663-6.1A20.246 20.246 0 016.3 10.409zM1 24a20.066 20.066 0 011.7-8.075 30.152 30.152 0 006.991 6.228A13.976 13.976 0 012.5 31.6 20.071 20.071 0 011 24zm1.908 8.513a15.084 15.084 0 007.692-9.794 29.717 29.717 0 009.951 3.708 33.293 33.293 0 00-5.076 16.927A20.254 20.254 0 012.908 32.513zM21.18 44.189a20.088 20.088 0 01-4.708-.577A32.776 32.776 0 0121.634 26.6a30.351 30.351 0 004.274.313 29.97 29.97 0 0015.384-4.25c.029.444.068.885.068 1.336A20.208 20.208 0 0121.18 44.19z" fill="#fff"/></svg>